<?xml version="1.0" encoding="UTF-8"?>
<!DOCTYPE svg PUBLIC "-//W3C//DTD SVG 1.1//EN" "http://www.w3.org/Graphics/SVG/1.1/DTD/svg11.dtd">
<!-- Creator: CorelDRAW 2020 (64-Bit) -->
<svg xmlns="http://www.w3.org/2000/svg" xml:space="preserve" width="20.441mm" height="20.441mm" version="1.1" style="shape-rendering:geometricPrecision; text-rendering:geometricPrecision; image-rendering:optimizeQuality; fill-rule:evenodd; clip-rule:evenodd"
viewBox="0 0 2044.1 2044.1"
 xmlns:xlink="http://www.w3.org/1999/xlink"
 xmlns:xodm="http://www.corel.com/coreldraw/odm/2003">
 <defs>
  <style type="text/css">
   <![CDATA[
    .fil0 {fill:#FEFEFE;fill-rule:nonzero}
   ]]>
  </style>
 </defs>
 <g id="Слой_x0020_1">
  <metadata id="CorelCorpID_0Corel-Layer"/>
  <g id="_1852212383328">
   <g>
    <path class="fil0" d="M1849.91 1022.05c-10.22,316.84 -153.31,562.13 -429.26,725.66 -143.09,81.76 -296.4,112.42 -459.92,102.2 -122.65,-10.22 -245.3,-40.88 -357.72,-112.42 -10.22,-10.23 -20.44,-10.23 -40.88,-10.23 -102.21,20.45 -194.19,51.11 -296.4,71.55 -20.44,0 -20.44,0 -20.44,-20.44 20.44,-102.21 51.11,-204.41 71.55,-296.4 0,-10.22 0,-20.44 -10.22,-40.88 -296.4,-490.58 0,-1134.47 572.34,-1236.68 449.71,-81.76 878.97,224.85 960.73,674.55 10.22,51.11 10.22,91.99 10.22,143.09l0 0z"/>
    <g>
     <path class="fil0" d="M132.87 2013.44c-61.33,0 -112.43,-51.1 -91.99,-112.42 10.22,-61.33 30.66,-132.87 40.88,-194.19 0,-10.23 10.23,-10.23 20.44,-10.23 20.45,10.23 40.89,10.23 71.55,20.45 10.22,0 10.22,10.22 10.22,20.44 -10.22,51.1 -20.44,102.2 -40.88,153.3 -10.22,20.44 0,20.44 20.44,20.44 51.1,-10.22 102.2,-20.44 153.31,-40.88 10.22,0 20.44,0 20.44,10.22 0,20.45 10.22,40.89 10.22,61.33 0,10.22 0,10.22 -10.22,20.44 -71.55,20.44 -132.87,30.66 -204.41,51.1 0,0 0,0 0,0l0 0z"/>
     <path class="fil0" d="M531.47 1921.45c-20.44,10.23 -51.11,10.23 -71.55,20.45 -20.44,0 -20.44,0 -20.44,-20.45 0,-20.44 -10.22,-40.88 -10.22,-61.32 0,-10.22 0,-10.22 10.22,-20.44 40.88,-10.22 81.77,-20.44 112.43,-30.66 10.22,0 10.22,0 20.44,0 71.54,40.88 143.08,71.54 224.85,91.98 10.22,0 20.44,10.22 10.22,20.44 -10.22,20.44 -10.22,40.88 -10.22,61.33 0,20.44 -10.22,20.44 -20.44,10.22 -71.54,-20.44 -143.09,-40.88 -204.41,-81.77 -30.66,10.22 -30.66,10.22 -40.88,10.22l0 0z"/>
     <path class="fil0" d="M224.85 1502.41c-10.22,30.67 -10.22,61.33 -20.44,102.21 -10.22,40.88 0,30.66 -40.88,20.44 -10.22,0 -30.66,-10.22 -40.88,-10.22 -20.45,0 -20.45,-10.22 -20.45,-20.44 10.23,-20.44 10.23,-51.1 20.45,-71.54 0,-10.23 0,-20.44 0,-30.67 -30.67,-61.32 -61.33,-132.86 -81.77,-204.41 -10.22,-20.44 -10.22,-20.44 10.22,-30.66 20.44,0 40.88,-10.22 61.33,-10.22 10.22,0 20.44,0 20.44,10.22 20.44,81.77 51.1,153.31 91.98,235.07 0,0 0,0 0,10.22z"/>
     <path class="fil0" d="M1839.69 408.82c0,10.22 0,10.22 0,0 -30.66,20.44 -40.88,40.88 -61.32,51.1 -10.22,10.22 -10.22,10.22 -20.44,0 -51.11,-71.54 -112.43,-122.64 -173.75,-173.75 -10.22,-10.22 -10.22,-10.22 0,-20.44 10.22,-20.44 30.66,-40.88 40.88,-61.32 0,0 0,0 10.22,0 81.77,61.32 143.09,122.65 204.41,204.41 0,0 0,0 0,0l0 0z"/>
     <path class="fil0" d="M1277.56 30.66c0,0 10.23,0 10.23,0 91.98,20.44 173.74,61.33 245.29,102.21 10.22,10.22 20.44,10.22 10.22,20.44 -10.22,20.44 -20.44,40.88 -30.66,51.1 0,10.22 -10.22,10.22 -20.44,0 -71.55,-40.88 -153.31,-71.54 -235.08,-91.98 -10.22,0 -10.22,-10.23 -10.22,-10.23 10.22,-20.44 10.22,-51.1 20.44,-71.54 0,10.22 0,0 10.22,0z"/>
     <path class="fil0" d="M275.95 470.14c0,0 -10.22,0 0,0 -20.44,-20.44 -40.88,-30.66 -61.32,-40.88 -10.22,-10.22 -10.22,-20.44 -10.22,-30.66 30.66,-30.66 51.1,-71.54 91.98,-102.21 30.67,-30.66 71.55,-61.32 102.21,-91.98 10.22,0 20.44,0 20.44,10.22 10.22,20.44 20.44,40.88 40.88,51.1 10.22,10.23 10.22,10.23 0,20.44 -71.54,51.11 -122.64,112.43 -173.75,173.75 0,0 -10.22,10.22 -10.22,10.22l0 0z"/>
     <path class="fil0" d="M1931.68 1246.9c20.44,10.22 51.1,10.22 71.54,20.44 10.22,0 10.22,10.22 10.22,20.44 -20.44,61.33 -40.88,122.65 -61.32,173.75 -10.22,30.66 -30.67,51.1 -40.89,81.77 -10.22,10.22 -10.22,10.22 -20.44,0 -20.44,-10.22 -40.88,-20.44 -61.32,-30.67 -10.22,0 -10.22,-10.22 -10.22,-20.44 40.88,-71.54 71.54,-153.3 91.98,-235.07 10.22,-10.22 10.22,-10.22 20.45,-10.22l0 0z"/>
     <path class="fil0" d="M112.43 797.2c-20.44,-10.22 -51.11,-10.22 -71.55,-20.44 -10.22,0 -10.22,-10.22 -10.22,-20.44 20.44,-71.55 40.88,-143.09 81.77,-204.41 10.22,-20.44 20.44,-30.66 30.66,-51.11 0,-10.22 10.22,-10.22 20.44,0 20.44,10.23 40.88,20.45 61.32,40.89 10.22,0 10.22,10.22 0,20.44 -40.88,71.54 -71.54,153.3 -91.98,235.07 -10.22,0 -10.22,0 -20.44,0l0 0z"/>
     <path class="fil0" d="M-0 1022.05c0,-40.88 0,-91.98 10.22,-132.87 0,-10.22 10.22,-20.44 20.44,-20.44 20.44,0 40.88,10.22 61.33,10.22 10.21,0 10.21,10.22 10.21,20.44 -10.22,81.77 -10.22,163.53 0,245.3 0,10.22 0,20.44 -10.22,20.44 -20.44,0 -40.88,10.22 -71.54,10.22 -10.22,0 -10.22,0 -20.44,-10.22 0,-51.11 0,-102.21 0,-143.09z"/>
     <path class="fil0" d="M2013.44 766.54c0,10.22 0,10.22 -10.22,10.22 -20.44,10.22 -40.88,10.22 -71.54,20.44 -10.23,0 -10.23,-10.22 -20.45,-10.22 -20.44,-71.55 -40.88,-132.87 -81.76,-204.41 0,-10.22 -10.22,-20.44 -20.44,-30.66 0,-10.23 0,-10.23 0,-20.44 20.44,-10.23 40.88,-20.45 61.32,-40.89 10.22,0 10.22,0 10.22,0 71.55,91.99 102.21,183.97 132.87,275.96l0 0 0 0z"/>
     <path class="fil0" d="M1839.69 1635.28c0,0 0,0 0,0 -61.32,81.77 -132.87,153.31 -204.41,204.41 -10.22,10.22 -10.22,10.22 -20.44,0 -10.22,-20.44 -20.44,-40.88 -40.88,-51.1 -10.22,-10.22 -10.22,-10.22 0,-20.44 61.32,-51.1 122.64,-112.43 173.75,-173.75 10.22,-10.22 10.22,-10.22 20.44,0 30.66,0 51.1,10.22 71.54,40.88 0,-10.22 0,-10.22 0,0l0 0z"/>
     <path class="fil0" d="M1022.05 0c40.88,0 81.77,0 132.87,10.22 10.22,0 20.44,10.22 20.44,20.44 0,20.44 -10.22,40.88 -10.22,61.33 0,10.21 -10.22,10.21 -20.44,10.21 -81.77,-10.22 -163.53,-10.22 -245.3,0 -10.22,0 -20.44,0 -20.44,-10.22 0,-20.44 -10.22,-40.88 -10.22,-61.32 0,-10.22 0,-20.44 10.22,-20.44 51.11,-10.22 102.21,-10.22 143.09,-10.22z"/>
     <path class="fil0" d="M1022.05 2044.1c-51.1,0 -91.98,0 -132.87,-10.22 -10.22,0 -20.44,-10.22 -20.44,-20.44 0,-20.44 10.22,-40.88 10.22,-61.33 0,-10.22 10.23,-10.22 20.44,-10.22 81.77,10.22 163.53,10.22 245.3,0 10.22,0 20.44,0 20.44,10.22 0,20.45 10.22,40.89 10.22,61.33 0,10.22 -10.22,10.22 -10.22,20.44 -51.11,10.22 -102.21,10.22 -143.09,10.22l0 0z"/>
     <path class="fil0" d="M766.54 30.66c10.22,0 10.22,0 10.22,10.22 10.22,20.44 10.22,51.11 20.44,71.55 0,10.22 -10.22,10.22 -10.22,20.44 -71.55,20.44 -143.09,51.1 -204.41,81.76 -20.44,10.22 -40.88,10.22 -51.1,-20.44 -20.44,-10.22 -20.44,-20.44 -30.67,-30.66 -10.22,-10.22 -10.22,-20.44 10.23,-20.44 61.32,-40.88 132.86,-71.55 204.41,-91.99 20.44,-10.22 30.66,-10.22 51.1,-20.44l0 0z"/>
     <path class="fil0" d="M2044.1 1022.05c0,40.88 0,91.98 -10.22,132.87 0,10.22 -10.22,20.44 -20.44,20.44 -20.44,0 -40.88,-10.22 -51.1,-10.22 -20.44,0 -20.44,0 -20.44,-20.44 10.22,-71.55 10.22,-132.87 0,-204.41 0,-10.22 0,-20.44 0,-40.89 0,-10.22 0,-20.44 10.22,-20.44 20.44,0 40.88,-10.22 61.32,-10.22 10.22,0 20.44,0 20.44,10.22 10.22,51.11 10.22,102.21 10.22,143.09z"/>
     <path class="fil0" d="M1277.56 2013.44c-10.22,0 -10.22,0 0,0 -20.44,-30.66 -20.44,-51.1 -30.66,-81.76 0,-10.23 10.22,-10.23 10.22,-20.45 71.55,-20.44 132.87,-40.88 204.41,-81.76 10.22,0 20.44,-10.22 30.67,-20.44 10.22,0 10.22,0 20.44,0 10.22,20.44 20.44,40.88 40.88,61.32 0,10.22 0,10.22 0,10.22 -91.99,71.55 -183.97,102.21 -275.96,132.87l0 0 0 0z"/>
    </g>
   </g>
  </g>
 </g>
</svg>
